<svg width="20" height="20" viewBox="0 0 20 20" fill="none" xmlns="http://www.w3.org/2000/svg">
<path d="M2.29648 17.1535C2.17345 17.1111 2.0667 17.0314 1.99114 16.9255C1.91559 16.8195 1.87498 16.6926 1.875 16.5625C1.875 13.707 2.44844 11.4234 3.58008 9.77462C4.94727 7.78243 7.10391 6.70977 10 6.57657V3.43751C10 3.31512 10.036 3.19544 10.1034 3.0933C10.1708 2.99115 10.2667 2.91105 10.3792 2.86292C10.4917 2.81479 10.6159 2.80076 10.7363 2.82256C10.8568 2.84436 10.9681 2.90103 11.0566 2.98555L17.9316 9.54805C17.9927 9.60641 18.0414 9.67655 18.0746 9.75423C18.1078 9.83191 18.1249 9.91552 18.1249 10C18.1249 10.0845 18.1078 10.1681 18.0746 10.2458C18.0414 10.3235 17.9927 10.3936 17.9316 10.452L11.0566 17.0145C10.9681 17.099 10.8568 17.1557 10.7363 17.1775C10.6159 17.1993 10.4917 17.1852 10.3792 17.1371C10.2667 17.089 10.1708 17.0089 10.1034 16.9067C10.036 16.8046 10 16.6849 10 16.5625V13.4465C8.24219 13.4996 6.91406 13.7844 5.85664 14.3309C4.71406 14.9215 3.88555 15.8039 2.99258 16.9481C2.91247 17.0506 2.80234 17.1256 2.67755 17.1626C2.55276 17.1996 2.41954 17.1967 2.29648 17.1543V17.1535Z" fill="white"/>
</svg>
