<svg width="20" height="20" viewBox="0 0 20 20" fill="none" xmlns="http://www.w3.org/2000/svg">
<g clip-path="url(#clip0_46_4552)">
<path d="M6.75827 11.4734L9.70494 14.4192C9.78308 14.4973 9.88904 14.5412 9.99952 14.5412C10.11 14.5412 10.216 14.4973 10.2941 14.4192L13.2408 11.4734C13.3189 11.3952 13.4249 11.3514 13.5354 11.3514C13.6458 11.3514 13.7518 11.3952 13.8299 11.4734L15.1266 12.7692C15.2047 12.8473 15.2486 12.9533 15.2486 13.0638C15.2486 13.1743 15.2047 13.2802 15.1266 13.3584L10.2941 18.1909C10.216 18.269 10.11 18.3128 9.99952 18.3128C9.88904 18.3128 9.78308 18.269 9.70494 18.1909L4.87327 13.3584C4.79516 13.2802 4.75128 13.1743 4.75128 13.0638C4.75128 12.9533 4.79516 12.8473 4.87327 12.7692L6.16994 11.4734C6.24808 11.3952 6.35404 11.3514 6.46452 11.3514C6.57501 11.3514 6.68097 11.3952 6.75911 11.4734H6.75827ZM16.8366 8.36086L16.8941 8.40919L18.1908 9.70502C18.2598 9.77396 18.3024 9.86494 18.3113 9.9621C18.3201 10.0593 18.2946 10.1564 18.2391 10.2367L18.1908 10.295L16.8941 11.5909C16.8252 11.6599 16.7342 11.7025 16.637 11.7114C16.5399 11.7202 16.4427 11.6946 16.3624 11.6392L16.3049 11.5909L15.0083 10.2942C14.9396 10.2252 14.8972 10.1343 14.8886 10.0374C14.8799 9.94039 14.9054 9.84345 14.9608 9.76336L15.0083 9.70502L16.3049 8.40919C16.3651 8.34903 16.4422 8.30872 16.5259 8.29368C16.6096 8.27863 16.696 8.28957 16.7733 8.32502L16.8366 8.36086ZM3.69494 8.40919L4.99161 9.70502C5.06972 9.78316 5.1136 9.88912 5.1136 9.99961C5.1136 10.1101 5.06972 10.2161 4.99161 10.2942L3.69494 11.5917C3.6168 11.6698 3.51084 11.7137 3.40036 11.7137C3.28987 11.7137 3.18391 11.6698 3.10577 11.5917L1.80827 10.2942C1.73016 10.2161 1.68628 10.1101 1.68628 9.99961C1.68628 9.88912 1.73016 9.78316 1.80827 9.70502L3.10494 8.40919C3.18308 8.33108 3.28904 8.28719 3.39952 8.28719C3.51001 8.28719 3.6168 8.33108 3.69494 8.40919ZM10.2366 8.36086L10.2949 8.40919L11.5908 9.70502C11.6598 9.77396 11.7024 9.86494 11.7113 9.9621C11.7201 10.0593 11.6946 10.1564 11.6391 10.2367L11.5908 10.295L10.2949 11.5909C10.226 11.6599 10.135 11.7025 10.0379 11.7114C9.94071 11.7202 9.84353 11.6946 9.76327 11.6392L9.70494 11.5909L8.40911 10.2942C8.34029 10.2253 8.29778 10.1345 8.28895 10.0375C8.28012 9.94054 8.30553 9.84354 8.36077 9.76336L8.40911 9.70502L9.70494 8.40919C9.76508 8.34903 9.84219 8.30872 9.92591 8.29368C10.0096 8.27863 10.096 8.28957 10.1733 8.32502L10.2366 8.36086ZM10.2949 1.80919L15.1266 6.64086C15.2047 6.71899 15.2486 6.82495 15.2486 6.93544C15.2486 7.04592 15.2047 7.15189 15.1266 7.23002L13.8299 8.52669C13.7518 8.6048 13.6458 8.64868 13.5354 8.64868C13.4249 8.64868 13.3189 8.6048 13.2408 8.52669L10.2949 5.58086C10.2562 5.54205 10.2103 5.51127 10.1596 5.49026C10.109 5.46926 10.0547 5.45844 9.99994 5.45844C9.94513 5.45844 9.89087 5.46926 9.84025 5.49026C9.78962 5.51127 9.74364 5.54205 9.70494 5.58086L6.75911 8.52669C6.68097 8.6048 6.57501 8.64868 6.46452 8.64868C6.35404 8.64868 6.24808 8.6048 6.16994 8.52669L4.87327 7.23002C4.79516 7.15189 4.75128 7.04592 4.75128 6.93544C4.75128 6.82495 4.79516 6.71899 4.87327 6.64086L9.70494 1.80919C9.78308 1.73108 9.88904 1.68719 9.99952 1.68719C10.11 1.68719 10.2168 1.73108 10.2949 1.80919Z" fill="#121212"/>
</g>
<defs>
<clipPath id="clip0_46_4552">
<rect width="20" height="20" fill="white"/>
</clipPath>
</defs>
</svg>
