<svg width="20" height="20" viewBox="0 0 20 20" fill="none" xmlns="http://www.w3.org/2000/svg">
<path fill-rule="evenodd" clip-rule="evenodd" d="M12 4H4L4 17H12V4ZM4 2C2.89543 2 2 2.89543 2 4V17C2 18.1046 2.89543 19 4 19H10.3007L12.3234 19.8308C13.3451 20.2504 14.5136 19.7623 14.9333 18.7406L19.3329 8.02833C19.7526 7.00658 19.2645 5.8381 18.2427 5.41846L13.972 3.66443C13.9905 3.77352 14.0001 3.88561 14.0001 3.99994V5.83805L17.4829 7.2685L14.0001 15.7484V16.9999C14.0001 17.3966 13.8846 17.7662 13.6854 18.0772C13.8846 17.7662 14 17.3966 14 17V4C14 2.89543 13.1046 2 12 2H4ZM7.879 8.03376C7.84216 8.05589 7.81151 8.08771 7.79012 8.12608L7.24676 9.10074L6.19155 9.33963C6.15 9.34904 6.11155 9.36966 6.08002 9.39945C6.04849 9.42924 6.02499 9.46716 6.01187 9.5094C5.99875 9.55165 5.99646 9.59676 6.00524 9.64022C6.01401 9.68368 6.03354 9.72397 6.06188 9.75708L6.78117 10.5981L6.6723 11.7204C6.66801 11.7646 6.67489 11.8092 6.69224 11.8498C6.7096 11.8903 6.73684 11.9254 6.77123 11.9515C6.80562 11.9776 6.84597 11.9938 6.88824 11.9986C6.93051 12.0033 6.97322 11.9963 7.01212 11.9784L8.00007 11.5234L8.98803 11.9784C9.02692 11.9963 9.06964 12.0033 9.11191 11.9986C9.15418 11.9938 9.19452 11.9776 9.22892 11.9515C9.26331 11.9254 9.29054 11.8903 9.3079 11.8498C9.32526 11.8092 9.33214 11.7646 9.32784 11.7204L9.21898 10.5981L9.93826 9.75688C9.96655 9.72377 9.98604 9.68349 9.99479 9.64006C10.0035 9.59662 10.0012 9.55155 9.98812 9.50934C9.975 9.46712 9.95152 9.42924 9.92002 9.39946C9.88852 9.36968 9.85011 9.34905 9.8086 9.33963L8.75338 9.10074L8.21003 8.12608C8.18863 8.08771 8.15799 8.05589 8.12115 8.03376C8.08431 8.01164 8.04256 8 8.00007 8C7.95758 8 7.91584 8.01164 7.879 8.03376Z" fill="#121212"/>
</svg>
