<svg width="20" height="20" viewBox="0 0 20 20" fill="none" xmlns="http://www.w3.org/2000/svg">
<path fill-rule="evenodd" clip-rule="evenodd" d="M18.7071 1.29289C19.0976 1.68342 19.0976 2.31658 18.7071 2.70711L2.70711 18.7071C2.31658 19.0976 1.68342 19.0976 1.29289 18.7071C0.902369 18.3166 0.902369 17.6834 1.29289 17.2929L17.2929 1.29289C17.6834 0.902369 18.3166 0.902369 18.7071 1.29289Z" fill="#121212"/>
<path fill-rule="evenodd" clip-rule="evenodd" d="M14.4035 2.76811C14.1432 2.52548 13.8397 2.33333 13.5084 2.20183C13.1459 2.05795 12.7578 1.98969 12.368 2.00126C12.0079 2.00894 11.6534 2.09099 11.3265 2.24223C10.9997 2.39348 10.7077 2.61067 10.4688 2.88017C10.2926 3.08116 10.1356 3.29826 10 3.5286C9.86442 3.29826 9.70748 3.08116 9.53128 2.88017C9.29239 2.61067 9.00035 2.39348 8.67352 2.24223C8.34669 2.09099 7.99211 2.00894 7.63206 2.00126C7.24224 1.98969 6.85417 2.05795 6.4917 2.20183C6.12922 2.34571 5.79998 2.56218 5.52422 2.83795C5.24846 3.11371 5.03198 3.44295 4.8881 3.80543C4.74422 4.1679 4.67596 4.55597 4.68753 4.94579C4.70039 5.4575 4.86161 5.95445 5.15159 6.37626H3.12503C2.71063 6.37626 2.3132 6.54088 2.02018 6.8339C1.72715 7.12693 1.56253 7.52436 1.56253 7.93876V10.4388C1.56246 10.799 1.68684 11.1481 1.91462 11.4272C2.14241 11.7062 2.4596 11.898 2.81253 11.97V14.3591L4.68753 12.4841V12.0013H5.17034L7.04534 10.1263H3.43753V8.25126H8.92034L11.0601 6.11152C11.1869 5.41769 11.4301 4.62225 11.875 4.12391C11.9442 4.04716 12.0285 3.98554 12.1226 3.94292C12.2167 3.9003 12.3186 3.8776 12.4219 3.87626H12.4492C12.5815 3.87588 12.7124 3.9021 12.8343 3.95336C12.9209 3.98978 13.0016 4.03832 13.0742 4.09737L14.4035 2.76811ZM7.54769 3.87626C7.28683 3.87813 7.03704 3.98186 6.85159 4.16532C6.75678 4.26059 6.68228 4.37409 6.63259 4.49898C6.58291 4.62386 6.55907 4.75752 6.56253 4.89188C6.56387 4.99519 6.58657 5.0971 6.62919 5.19121C6.67181 5.28532 6.73343 5.36961 6.81019 5.43876C7.34378 5.91767 8.23831 6.16298 8.96487 6.28095C8.84847 5.54891 8.60316 4.66298 8.12503 4.12391C8.05588 4.04716 7.9716 3.98554 7.87748 3.94292C7.78337 3.9003 7.68146 3.8776 7.57816 3.87626H7.54769Z" fill="#121212"/>
<path fill-rule="evenodd" clip-rule="evenodd" d="M16.4522 6.37626L14.5772 8.25126H16.5625V10.1263H12.7022L9.06253 13.7659V16.3763H6.4522L4.5772 18.2513H15.625C16.0394 18.2513 16.4369 18.0866 16.7299 17.7936C17.0229 17.5006 17.1875 17.1032 17.1875 16.6888V11.97C17.5405 11.898 17.8577 11.7062 18.0854 11.4272C18.3132 11.1481 18.4376 10.799 18.4375 10.4388V7.93876C18.4375 7.52436 18.2729 7.12693 17.9799 6.8339C17.6869 6.54088 17.2894 6.37626 16.875 6.37626H16.4522ZM10.9375 12.0013V16.3763H15.3125V12.0013H10.9375Z" fill="#121212"/>
</svg>
