<svg width="20" height="20" viewBox="0 0 20 20" fill="none" xmlns="http://www.w3.org/2000/svg">
<path d="M16.875 6.37626H14.8484C15.1384 5.95445 15.2996 5.4575 15.3125 4.94579C15.3241 4.55597 15.2558 4.1679 15.1119 3.80543C14.968 3.44295 14.7516 3.11371 14.4758 2.83795C14.2 2.56218 13.8708 2.34571 13.5083 2.20183C13.1459 2.05795 12.7578 1.98969 12.368 2.00126C12.0079 2.00894 11.6533 2.09099 11.3265 2.24223C10.9997 2.39348 10.7076 2.61067 10.4688 2.88016C10.2925 3.08116 10.1356 3.29826 10 3.5286C9.86439 3.29826 9.70745 3.08116 9.53125 2.88016C9.29236 2.61067 9.00032 2.39348 8.67349 2.24223C8.34666 2.09099 7.99208 2.00894 7.63203 2.00126C7.24221 1.98969 6.85414 2.05795 6.49167 2.20183C6.12919 2.34571 5.79996 2.56218 5.52419 2.83795C5.24843 3.11371 5.03195 3.44295 4.88807 3.80543C4.74419 4.1679 4.67593 4.55597 4.6875 4.94579C4.70036 5.4575 4.86158 5.95445 5.15156 6.37626H3.125C2.7106 6.37626 2.31317 6.54088 2.02015 6.8339C1.72712 7.12693 1.5625 7.52436 1.5625 7.93876V10.4388C1.56243 10.799 1.68681 11.1481 1.91459 11.4272C2.14238 11.7062 2.45957 11.898 2.8125 11.97V16.6888C2.8125 17.1032 2.97712 17.5006 3.27015 17.7936C3.56317 18.0866 3.9606 18.2513 4.375 18.2513H15.625C16.0394 18.2513 16.4368 18.0866 16.7299 17.7936C17.0229 17.5006 17.1875 17.1032 17.1875 16.6888V11.97C17.5404 11.898 17.8576 11.7062 18.0854 11.4272C18.3132 11.1481 18.4376 10.799 18.4375 10.4388V7.93876C18.4375 7.52436 18.2729 7.12693 17.9799 6.8339C17.6868 6.54088 17.2894 6.37626 16.875 6.37626ZM16.5625 10.1263H10.9375V8.25126H16.5625V10.1263ZM11.875 4.12391C11.9442 4.04716 12.0284 3.98554 12.1225 3.94292C12.2167 3.9003 12.3186 3.8776 12.4219 3.87626H12.4492C12.5814 3.87588 12.7124 3.9021 12.8342 3.95336C12.9561 4.00461 13.0664 4.07985 13.1586 4.17461C13.2508 4.26936 13.323 4.38169 13.3709 4.50491C13.4188 4.62813 13.4415 4.75973 13.4375 4.89188C13.4362 4.99519 13.4135 5.0971 13.3708 5.19121C13.3282 5.28532 13.2666 5.3696 13.1898 5.43876C12.6508 5.91688 11.7641 6.1622 11.0312 6.27938C11.1484 5.5497 11.3938 4.66298 11.875 4.12391ZM6.85156 4.16532C7.03701 3.98186 7.2868 3.87813 7.54766 3.87626H7.57812C7.68143 3.8776 7.78334 3.9003 7.87745 3.94292C7.97157 3.98554 8.05585 4.04716 8.125 4.12391C8.60313 4.66298 8.84844 5.54891 8.96484 6.28095C8.23828 6.16298 7.34375 5.91767 6.81016 5.43876C6.7334 5.3696 6.67178 5.28532 6.62916 5.19121C6.58654 5.0971 6.56384 4.99519 6.5625 4.89188C6.55904 4.75752 6.58288 4.62386 6.63256 4.49898C6.68225 4.37409 6.75675 4.26059 6.85156 4.16532ZM3.4375 8.25126H9.0625V10.1263H3.4375V8.25126ZM4.6875 12.0013H9.0625V16.3763H4.6875V12.0013ZM10.9375 16.3763V12.0013H15.3125V16.3763H10.9375Z" fill="#121212"/>
</svg>
