<svg width="20" height="20" viewBox="0 0 20 20" fill="none" xmlns="http://www.w3.org/2000/svg">
<path fill-rule="evenodd" clip-rule="evenodd" d="M1.44587 7.17159L2.79073 2.15249L3.93056 3.29232C5.29822 2.0688 7.01081 1.28977 8.84026 1.06637C10.8356 0.82272 12.8551 1.25408 14.5767 2.29167C16.2984 3.32927 17.6231 4.91338 18.3398 6.79145C19.0564 8.66953 19.1237 10.7335 18.5309 12.6542C17.938 14.575 16.7193 16.242 15.0688 17.3895C13.4184 18.537 11.4313 19.0989 9.4243 18.9857C7.41733 18.8725 5.50603 18.0907 3.99509 16.7649C2.48416 15.439 1.46057 13.6456 1.0875 11.6703C0.985002 11.1276 1.34185 10.6046 1.88454 10.5021C2.42723 10.3996 2.95026 10.7565 3.05275 11.2991C3.34292 12.8354 4.13904 14.2304 5.31422 15.2616C6.48939 16.2928 7.97596 16.9009 9.53694 16.9889C11.0979 17.077 12.6434 16.6399 13.9271 15.7474C15.2108 14.8549 16.1587 13.5583 16.6198 12.0644C17.0809 10.5705 17.0286 8.9652 16.4712 7.50447C15.9138 6.04374 14.8835 4.81166 13.5444 4.00464C12.2053 3.19762 10.6346 2.86212 9.08268 3.05163C7.69679 3.22086 6.39713 3.80006 5.34759 4.70935L6.46496 5.82672L1.44587 7.17159ZM9.86618 5.23402C10.4185 5.23402 10.8662 5.68174 10.8662 6.23402V9.81978L13.5733 12.5269C13.9638 12.9174 13.9638 13.5506 13.5733 13.9411C13.1828 14.3316 12.5496 14.3316 12.1591 13.9411L9.16362 10.9457C9.14812 10.9303 9.13312 10.9145 9.11864 10.8983C9.04614 10.8168 8.98926 10.7264 8.94799 10.6308C8.89535 10.5092 8.86618 10.375 8.86618 10.234V6.23402C8.86618 5.68174 9.31389 5.23402 9.86618 5.23402Z" fill="black"/>
</svg>
