<svg width="25" height="24" viewBox="0 0 25 24" fill="none" xmlns="http://www.w3.org/2000/svg">
<g clip-path="url(#clip0_1132_3229)">
<path fill-rule="evenodd" clip-rule="evenodd" d="M11.8694 1.50306C12.3241 1.09891 13.0092 1.09891 13.4639 1.50306L15.8229 3.59995H17.4666C19.4548 3.59995 21.0666 5.21173 21.0666 7.19995V8.26106L24.2434 11.0849C24.2893 11.1239 24.3327 11.1667 24.373 11.2133C24.5877 11.46 24.686 11.7766 24.6635 12.0874C24.6511 12.2586 24.602 12.4282 24.5156 12.5834L24.5061 12.6C24.6082 12.7765 24.6666 12.9814 24.6666 13.2V20.4C24.6666 22.3882 23.0549 24 21.0666 24H4.26663C2.2784 24 0.666627 22.3882 0.666627 20.4V13.2C0.666627 12.9814 0.725053 12.7765 0.827134 12.6L0.81996 12.5874C0.730834 12.429 0.680863 12.2554 0.669253 12.0801C0.657608 11.9081 0.682831 11.7326 0.747436 11.5663C0.796737 11.4388 0.868461 11.3183 0.96224 11.211C1.00194 11.1654 1.04456 11.1234 1.08963 11.0851L4.26661 8.26108V7.19995C4.26661 5.21173 5.87839 3.59995 7.86661 3.59995H9.51039L11.8694 1.50306ZM4.26661 11.4722L3.82591 11.8639L4.26661 12.1577V11.4722ZM7.19669 14.1111L7.20097 14.114L12.001 17.314L12.0054 17.3169C12.4079 17.5827 12.9306 17.5817 13.3323 17.314L18.1323 14.114C18.4661 13.8914 18.6666 13.5167 18.6666 13.1155V7.19995C18.6666 6.53721 18.1294 5.99995 17.4666 5.99995H7.86661C7.20387 5.99995 6.66661 6.53721 6.66661 7.19995V13.1155C6.66661 13.515 6.86542 13.8882 7.19669 14.1111ZM21.0666 12.1577V11.4722L21.5074 11.8639L21.0666 12.1577ZM5.86253 16.1061L3.06663 14.2422V20.4C3.06663 21.0627 3.60389 21.6 4.26663 21.6H21.0666C21.7294 21.6 22.2666 21.0627 22.2666 20.4V14.2422L19.4635 16.1109L14.6635 19.3109L13.3323 20.1984C12.9292 20.4671 12.4041 20.4671 12.001 20.1984L10.6774 19.316L10.6697 19.3109L5.86969 16.1109L5.86253 16.1061ZM12.6666 7.19995C13.3294 7.19995 13.8666 7.73721 13.8666 8.39995V9.59995H15.0666C15.7294 9.59995 16.2666 10.1372 16.2666 10.8C16.2666 11.4627 15.7294 12 15.0666 12H13.8666V13.2C13.8666 13.8627 13.3294 14.4 12.6666 14.4C12.0039 14.4 11.4666 13.8627 11.4666 13.2V12H10.2666C9.60387 12 9.06661 11.4627 9.06661 10.8C9.06661 10.1372 9.60387 9.59995 10.2666 9.59995H11.4666V8.39995C11.4666 7.73721 12.0039 7.19995 12.6666 7.19995Z" fill="url(#paint0_linear_1132_3229)"/>
</g>
<defs>
<linearGradient id="paint0_linear_1132_3229" x1="0.666504" y1="12.5999" x2="24.6666" y2="12.5999" gradientUnits="userSpaceOnUse">
<stop stop-color="#12B8FF"/>
<stop offset="1" stop-color="#FF007A"/>
<stop offset="1.0001" stop-color="#FF007A"/>
</linearGradient>
<clipPath id="clip0_1132_3229">
<rect width="24" height="24" fill="white" transform="translate(0.666504)"/>
</clipPath>
</defs>
</svg>
