<svg width="20" height="20" viewBox="0 0 20 20" fill="none" xmlns="http://www.w3.org/2000/svg">
<g clip-path="url(#clip0_502_3767)">
<path fill-rule="evenodd" clip-rule="evenodd" d="M13 15V14C13 13.4477 13.4477 13 14 13C14.5523 13 15 13.4477 15 14V15C15 16.1046 14.1046 17 13 17H11V17.6488C11 18.9463 9.78359 19.9004 8.52344 19.5912L1.52344 17.8738C0.628964 17.6543 0 16.8524 0 15.9314V3.1185V2C0 0.89543 0.895431 0 2 0H13C14.1046 0 15 0.895431 15 2V6C15 6.55228 14.5523 7 14 7C13.4477 7 13 6.55228 13 6V2H5.49999L9.52624 3.09807C10.3964 3.33537 11 4.12569 11 5.02759V15H13ZM19.7891 9.40987L17.12 6.24444C16.8388 5.91852 16.3829 5.91852 16.1018 6.24444C15.8206 6.57036 15.8206 7.09878 16.1018 7.4247L17.5418 9.16543L12.72 9.16543C12.3224 9.16543 12 9.53908 12 10C12 10.4609 12.3224 10.8346 12.72 10.8346L17.5418 10.8346L16.1018 12.5753C15.8206 12.9012 15.8206 13.4296 16.1018 13.7556C16.3829 14.0815 16.8388 14.0815 17.12 13.7556L19.7891 10.5901C20.0703 10.2642 20.0703 9.73579 19.7891 9.40987ZM9 5.02759L2 3.1185L2 15.9314L9 17.6488L9 5.02759ZM8 9.5C8 9.22386 7.77614 9 7.5 9C7.22386 9 7 9.22386 7 9.5V11.5C7 11.7761 7.22386 12 7.5 12C7.77614 12 8 11.7761 8 11.5V9.5Z" fill="black"/>
</g>
<defs>
<clipPath id="clip0_502_3767">
<rect width="20" height="20" fill="white"/>
</clipPath>
</defs>
</svg>
