<svg width="20" height="20" viewBox="0 0 20 20" fill="none" xmlns="http://www.w3.org/2000/svg">
<path fill-rule="evenodd" clip-rule="evenodd" d="M3 2C1.34315 2 0 3.34315 0 5V15C0 16.6569 1.34315 18 3 18H17C18.6569 18 20 16.6569 20 15V5C20 3.34315 18.6569 2 17 2H3ZM2 5C2 4.44772 2.44772 4 3 4H17C17.5523 4 18 4.44772 18 5V15C18 15.5523 17.5523 16 17 16H3C2.44772 16 2 15.5523 2 15V5ZM9.29289 12.7071C9.68342 13.0976 10.3166 13.0976 10.7071 12.7071L16.7071 6.70711C17.0976 6.31658 17.0976 5.68342 16.7071 5.29289C16.3166 4.90237 15.6834 4.90237 15.2929 5.29289L10 10.5858L4.70711 5.29289C4.31658 4.90237 3.68342 4.90237 3.29289 5.29289C2.90237 5.68342 2.90237 6.31658 3.29289 6.70711L9.29289 12.7071Z" fill="black"/>
</svg>
