<svg width="20" height="20" viewBox="0 0 20 20" fill="none" xmlns="http://www.w3.org/2000/svg">
<g clip-path="url(#clip0_2_389)">
<path fill-rule="evenodd" clip-rule="evenodd" d="M10.7071 1.29289C10.5196 1.10536 10.2652 1 10 1C9.73478 1 9.48043 1.10536 9.29289 1.29289L0.292893 10.2929C-0.0976311 10.6834 -0.0976311 11.3166 0.292893 11.7071C0.683418 12.0976 1.31658 12.0976 1.70711 11.7071L10 3.41421L18.2929 11.7071C18.6834 12.0976 19.3166 12.0976 19.7071 11.7071C20.0976 11.3166 20.0976 10.6834 19.7071 10.2929L10.7071 1.29289ZM3.99999 10C4.55227 10 4.99999 10.4477 4.99999 11V17C4.99999 17.5523 5.44771 18 5.99999 18H6.99999V14C6.99999 12.8954 7.89542 12 8.99999 12H11C12.1046 12 13 12.8954 13 14V18H14C14.5523 18 15 17.5523 15 17V11C15 10.4477 15.4477 10 16 10C16.5523 10 17 10.4477 17 11V17C17 18.6569 15.6568 20 14 20H12.7324C12.3866 20.5978 11.7403 21 11 21H8.99999C8.25971 21 7.61336 20.5978 7.26756 20H5.99999C4.34314 20 2.99999 18.6569 2.99999 17V11C2.99999 10.4477 3.44771 10 3.99999 10ZM8.99999 18H11V14H8.99999V18Z" fill="black"/>
</g>
<defs>
<clipPath id="clip0_2_389">
<rect width="20" height="20" fill="white"/>
</clipPath>
</defs>
</svg>
