<svg width="20" height="20" viewBox="0 0 20 20" fill="none" xmlns="http://www.w3.org/2000/svg">
<path fill-rule="evenodd" clip-rule="evenodd" d="M10 3.30945L15.7943 6.65475V11.0042C15.8625 11.0014 15.9311 11 16 11C16.6324 11 17.2373 11.1174 17.7943 11.3316V6.65475C17.7943 5.94022 17.4131 5.27996 16.7943 4.9227L11 1.5774C10.3812 1.22013 9.61884 1.22013 9.00004 1.5774L3.20581 4.9227C2.58701 5.27996 2.20581 5.94022 2.20581 6.65475V13.3453C2.20581 14.0599 2.58701 14.7201 3.20581 15.0774L9.00004 18.4227C9.61884 18.78 10.3812 18.78 11 18.4227L11.4819 18.1445C11.1881 17.5265 11.0173 16.8386 11.0012 16.1126L10 16.6906L4.20581 13.3453L4.20581 6.65475L10 3.30945Z" fill="black"/>
<path fill-rule="evenodd" clip-rule="evenodd" d="M16 13C16.5523 13 17 13.4477 17 14L17 18C17 18.5523 16.5523 19 16 19C15.4477 19 15 18.5523 15 18L15 14C15 13.4477 15.4477 13 16 13Z" fill="black"/>
<path fill-rule="evenodd" clip-rule="evenodd" d="M19 16C19 16.5523 18.5523 17 18 17L14 17C13.4477 17 13 16.5523 13 16C13 15.4477 13.4477 15 14 15L18 15C18.5523 15 19 15.4477 19 16Z" fill="black"/>
<path d="M11.3481 8.72731V8.09094H13.8766V8.72731H13.0016V11H12.2231V8.72731H11.3481Z" fill="black"/>
<path d="M9.0918 11V8.09094H11.1373V8.72731H9.88157V9.22731H11.0123V9.86367H9.88157V11H9.0918Z" fill="black"/>
<path d="M8.71822 8.09094V11H8.05913L7.00799 9.47162H6.99094V11H6.20117V8.09094H6.87163L7.90572 9.61367H7.92844V8.09094H8.71822Z" fill="black"/>
</svg>
