<svg width="20" height="20" viewBox="0 0 20 20" fill="none" xmlns="http://www.w3.org/2000/svg">
<path fill-rule="evenodd" clip-rule="evenodd" d="M15 8V2.60327L13.7379 2.93982L10.3824 4.72945C9.80303 5.03842 9.15656 5.20004 8.5 5.20004L3 5.20004V10.8H8.5C9.15656 10.8 9.80303 10.9617 10.3824 11.2706L13.7379 13.0603L15 13.3968V8ZM17 6V2.60327C17 1.2892 15.7544 0.332211 14.4847 0.670795L13.2226 1.00735C13.0747 1.04679 12.9318 1.10308 12.7967 1.17512L9.44118 2.96475C9.15152 3.11923 8.82828 3.20004 8.5 3.20004H3C1.89543 3.20004 1 4.09547 1 5.20004V10.8C1 10.8729 1.0039 10.9449 1.01149 11.0157L1 11L1.01863 11.0742C1.03875 11.221 1.0748 11.3627 1.12498 11.4975L2.447 16.7602C2.78324 18.0986 3.92426 18.9656 4.99555 18.6964L6.93528 18.2092C8.00656 17.94 8.60243 16.6368 8.26619 15.2983L7.6386 12.8H8.5C8.82828 12.8 9.15152 12.8809 9.44118 13.0353L12.7967 14.825C12.9318 14.897 13.0747 14.9533 13.2226 14.9927L14.4847 15.3293C15.7544 15.6679 17 14.7109 17 13.3968V10C18.1046 10 19 9.10457 19 8C19 6.89543 18.1046 6 17 6ZM4.38673 16.2729L3.51432 12.8H5.57646L6.32646 15.7856L4.38673 16.2729Z" fill="black"/>
</svg>
