<svg width="60" height="60" viewBox="0 0 60 60" fill="none" xmlns="http://www.w3.org/2000/svg">
<path fill-rule="evenodd" clip-rule="evenodd" d="M56.1213 8.12132C57.2929 6.94975 57.2929 5.05025 56.1213 3.87868C54.9497 2.70711 53.0503 2.70711 51.8787 3.87868L3.87868 51.8787C2.70711 53.0503 2.70711 54.9497 3.87868 56.1213C5.05025 57.2929 6.94975 57.2929 8.12132 56.1213L56.1213 8.12132ZM12.9884 17.7212L41.2837 9.13513L34.2528 16.166L29.1277 17.7212H32.6976L28.0125 22.4063H12.359V38.0599L7.63647 42.7824V24.0974C7.42576 23.2405 7.46574 22.3713 7.71128 21.5712C8.10831 19.3821 10.0381 17.7212 12.359 17.7212H12.9884ZM39.4518 27.4269C39.259 27.4269 39.0681 27.4345 38.8792 27.4495L32.3866 33.9421C32.3743 34.1113 32.3681 34.2822 32.3681 34.4546C32.3681 38.3359 35.5396 41.4823 39.4518 41.4823H46.5355H47.7776V46.1887L20.14 46.1887L15.4549 50.8739H47.7776C50.3858 50.8739 52.5001 48.7763 52.5001 46.1887V22.4063C52.5001 20.4307 51.2675 18.7406 49.5236 18.0518L49.253 17.0757L43.9224 22.4063H47.7776V27.4269H46.5355H39.4518ZM37.0906 34.4546C37.0906 33.1608 38.1477 32.112 39.4518 32.112H41.813H46.5355V36.7971H41.813H39.4518C38.1477 36.7971 37.0906 35.7483 37.0906 34.4546Z" fill="#E10B0B"/>
</svg>
