<svg width="20" height="20" viewBox="0 0 20 20" fill="none" xmlns="http://www.w3.org/2000/svg">
<path fill-rule="evenodd" clip-rule="evenodd" d="M6.0564 8C6.20861 6.66636 6.65841 5.49919 7.2782 4.63149C8.04999 3.55098 9.02606 3 10 3C10.9739 3 11.95 3.55098 12.7218 4.63149C13.3416 5.49919 13.7914 6.66636 13.9436 8H6.0564ZM4.04596 8C4.20603 6.2704 4.77732 4.69179 5.65073 3.46901C6.68858 2.01603 8.21252 1 10 1C11.7875 1 13.3114 2.01603 14.3493 3.46901C15.2227 4.69179 15.794 6.2704 15.954 8H17C18.1046 8 19 8.89543 19 10V18C19 19.1046 18.1046 20 17 20H3C1.89543 20 1 19.1046 1 18V10C1 8.89543 1.89543 8 3 8H4.04596ZM3 18V10H17V18H3ZM10.2072 13.9785C10.6601 13.8831 11 13.4812 11 13C11 12.4477 10.5523 12 10 12C9.44771 12 9 12.4477 9 13C9 13.4812 9.33994 13.8831 9.7928 13.9785L9.13397 15.5H10.866L10.2072 13.9785Z" fill="black"/>
</svg>
