<svg width="20" height="20" viewBox="0 0 20 20" fill="none" xmlns="http://www.w3.org/2000/svg">
<g clip-path="url(#clip0_46_4530)">
<path fill-rule="evenodd" clip-rule="evenodd" d="M7.2782 4.63149C6.65841 5.49919 6.20861 6.66636 6.0564 8H13.9436C13.7914 6.66636 13.3416 5.49919 12.7218 4.63149C11.95 3.55098 10.9739 3 10 3C9.02606 3 8.04999 3.55098 7.2782 4.63149ZM5.65073 3.46901C4.77732 4.69179 4.20603 6.2704 4.04596 8H3C1.89543 8 1 8.89543 1 10V18C1 19.1046 1.89543 20 3 20H12.9996C12.5629 19.4186 12.25 18.7389 12.1 18H3V10H17V12C17.7111 12 18.3875 12.1484 19 12.416V10C19 8.89543 18.1046 8 17 8H15.954C15.794 6.2704 15.2227 4.69179 14.3493 3.46901C13.3114 2.01603 11.7875 1 10 1C8.21252 1 6.68858 2.01603 5.65073 3.46901ZM11 13C11 13.4812 10.6601 13.8831 10.2072 13.9785L10.866 15.5H9.13397L9.7928 13.9785C9.33994 13.8831 9 13.4812 9 13C9 12.4477 9.44771 12 10 12C10.5523 12 11 12.4477 11 13Z" fill="black"/>
<path fill-rule="evenodd" clip-rule="evenodd" d="M19.6823 14.7689C20.0861 15.1458 20.1079 15.7786 19.7311 16.1823L16.7437 19.3831L14.3492 17.3307C13.9299 16.9713 13.8813 16.34 14.2408 15.9206C14.6002 15.5013 15.2315 15.4528 15.6508 15.8122L16.5897 16.6169L18.269 14.8177C18.6458 14.4139 19.2786 14.3921 19.6823 14.7689Z" fill="black"/>
</g>
<defs>
<clipPath id="clip0_46_4530">
<rect width="20" height="20" fill="white"/>
</clipPath>
</defs>
</svg>
