<svg width="20" height="20" viewBox="0 0 20 20" fill="none" xmlns="http://www.w3.org/2000/svg">
<path d="M7.79012 8.12608C7.81151 8.08771 7.84216 8.05589 7.879 8.03376C7.91584 8.01164 7.95758 8 8.00007 8C8.04256 8 8.08431 8.01164 8.12115 8.03376C8.15799 8.05589 8.18863 8.08771 8.21003 8.12608L8.75338 9.10074L9.8086 9.33963C9.85011 9.34905 9.88852 9.36968 9.92002 9.39946C9.95152 9.42924 9.975 9.46712 9.98812 9.50934C10.0012 9.55155 10.0035 9.59662 9.99479 9.64006C9.98604 9.68349 9.96655 9.72377 9.93826 9.75688L9.21898 10.5981L9.32784 11.7204C9.33214 11.7646 9.32526 11.8092 9.3079 11.8498C9.29054 11.8903 9.26331 11.9254 9.22892 11.9515C9.19452 11.9776 9.15418 11.9938 9.11191 11.9986C9.06964 12.0033 9.02692 11.9963 8.98803 11.9784L8.00007 11.5234L7.01212 11.9784C6.97322 11.9963 6.93051 12.0033 6.88824 11.9986C6.84597 11.9938 6.80562 11.9776 6.77123 11.9515C6.73684 11.9254 6.7096 11.8903 6.69224 11.8498C6.67489 11.8092 6.66801 11.7646 6.6723 11.7204L6.78117 10.5981L6.06188 9.75708C6.03354 9.72397 6.01401 9.68368 6.00524 9.64022C5.99646 9.59676 5.99875 9.55165 6.01187 9.5094C6.02499 9.46716 6.04849 9.42924 6.08002 9.39945C6.11155 9.36966 6.15 9.34904 6.19155 9.33963L7.24676 9.10074L7.79012 8.12608Z" fill="black"/>
<path fill-rule="evenodd" clip-rule="evenodd" d="M12 4H4L4 17H11.5C11.5 18.0634 11.832 19.0493 12.398 19.8597C12.373 19.8506 12.3482 19.8409 12.3234 19.8308L10.3007 19H4C2.89543 19 2 18.1046 2 17V4C2 2.89543 2.89543 2 4 2H12C13.1046 2 14 2.89543 14 4V12.6689C13.1372 13.168 12.4375 13.9174 12 14.8179V4ZM15.4984 12.1003C15.822 12.0345 16.157 12 16.5 12C16.8948 12 17.2789 12.0458 17.6474 12.1323L19.3329 8.02833C19.7526 7.00658 19.2645 5.8381 18.2427 5.41846L13.972 3.66443C13.9905 3.77352 14.0001 3.88561 14.0001 3.99994V5.83805L17.4829 7.2685L15.4984 12.1003Z" fill="black"/>
<path d="M18.75 16.7998C19.0833 16.9922 19.0833 17.4734 18.75 17.6658L15.75 19.3979C15.4167 19.5903 15 19.3497 15 18.9648L15 15.5007C15 15.1158 15.4167 14.8753 15.75 15.0677L18.75 16.7998Z" fill="black"/>
</svg>
