<svg width="26" height="29" viewBox="0 0 26 29" fill="none" xmlns="http://www.w3.org/2000/svg">
<path d="M12.504 23.384C10.7547 23.384 9.12267 23.096 7.608 22.52C6.11467 21.944 4.81333 21.1333 3.704 20.088C2.616 19.0427 1.76267 17.816 1.144 16.408C0.546667 15 0.248 13.464 0.248 11.8C0.248 10.136 0.546667 8.6 1.144 7.192C1.76267 5.784 2.62667 4.55733 3.736 3.512C4.84533 2.46667 6.14667 1.656 7.64 1.08C9.13333 0.503999 10.7547 0.216 12.504 0.216C14.2747 0.216 15.896 0.503999 17.368 1.08C18.8613 1.656 20.152 2.46667 21.24 3.512C22.3493 4.536 23.2133 5.752 23.832 7.16C24.4507 8.568 24.76 10.1147 24.76 11.8C24.76 13.464 24.4507 15.0107 23.832 16.44C23.2133 17.848 22.3493 19.0747 21.24 20.12C20.152 21.144 18.8613 21.944 17.368 22.52C15.896 23.096 14.2747 23.384 12.504 23.384ZM19.832 28.152C18.9573 28.152 18.1253 28.056 17.336 27.864C16.568 27.672 15.8 27.3627 15.032 26.936C14.2853 26.5093 13.496 25.9333 12.664 25.208C11.8533 24.4827 10.968 23.5867 10.008 22.52L15.448 21.144C16.024 21.9333 16.5573 22.5627 17.048 23.032C17.5387 23.5013 18.008 23.832 18.456 24.024C18.9253 24.216 19.416 24.312 19.928 24.312C21.2933 24.312 22.5093 23.7573 23.576 22.648L25.88 25.4C24.3653 27.2347 22.3493 28.152 19.832 28.152ZM12.504 18.968C13.5067 18.968 14.424 18.7973 15.256 18.456C16.1093 18.1147 16.856 17.624 17.496 16.984C18.136 16.344 18.6267 15.5867 18.968 14.712C19.3307 13.816 19.512 12.8453 19.512 11.8C19.512 10.7333 19.3307 9.76267 18.968 8.888C18.6267 8.01333 18.136 7.256 17.496 6.616C16.856 5.976 16.1093 5.48533 15.256 5.144C14.424 4.80267 13.5067 4.632 12.504 4.632C11.5013 4.632 10.5733 4.80267 9.72 5.144C8.86667 5.48533 8.12 5.976 7.48 6.616C6.86133 7.256 6.37067 8.01333 6.008 8.888C5.66667 9.76267 5.496 10.7333 5.496 11.8C5.496 12.8453 5.66667 13.816 6.008 14.712C6.37067 15.5867 6.86133 16.344 7.48 16.984C8.12 17.624 8.86667 18.1147 9.72 18.456C10.5733 18.7973 11.5013 18.968 12.504 18.968Z" fill="#C8181A"/>
</svg>
