<svg width="20" height="20" viewBox="0 0 20 20" fill="none" xmlns="http://www.w3.org/2000/svg">
<path fill-rule="evenodd" clip-rule="evenodd" d="M9.96033 9.08398L3.5567 5.57882L10 2.65003L16.4434 5.57883L10.0397 9.08398C10.0264 9.09128 10.0132 9.09873 10 9.10631C9.9869 9.09873 9.97367 9.09128 9.96033 9.08398ZM2.64753 3.79517C1.73698 4.20905 1.35047 5.14582 1.5102 5.99521C1.50352 6.04233 1.50004 6.0908 1.50004 6.14045V13.8C1.50004 14.5137 1.88033 15.1733 2.49797 15.5308L8.74849 19.1496C9.15789 19.3866 9.60945 19.4056 10 19.2662C10.3906 19.4056 10.8422 19.3866 11.2516 19.1496L17.5021 15.5308C18.1197 15.1733 18.5 14.5137 18.5 13.8V6.14045C18.5 6.0908 18.4966 6.04233 18.4899 5.99521C18.6496 5.14582 18.2631 4.20905 17.3526 3.79516L10.8276 0.829291C10.3018 0.590269 9.69828 0.590269 9.17243 0.829292L2.64753 3.79517ZM3.50004 13.8L3.50004 7.90767L9.00004 10.9077L9.00004 16.9842L3.50004 13.8ZM16.5 13.8L11 16.9842V10.9077L16.5 7.90767L16.5 13.8ZM8.853 4.39144C8.73787 4.53354 8.81942 4.72894 9.0113 4.79604C9.15761 4.84539 9.3327 4.80986 9.41664 4.69736C9.52937 4.55328 9.71166 4.43288 9.99228 4.43288C10.6111 4.43288 10.7334 4.90854 10.5152 5.16315C10.4234 5.27116 10.3022 5.36316 10.1796 5.45617C10.0267 5.5722 9.87173 5.68982 9.76922 5.8421C9.70207 5.94078 9.67328 6.04539 9.65889 6.14605C9.63491 6.31776 9.8052 6.46578 10.0139 6.46578C10.1914 6.46578 10.3353 6.35328 10.3569 6.2092C10.3712 6.12039 10.3928 6.07697 10.4288 6.02368C10.5009 5.91454 10.603 5.83327 10.7218 5.73863C10.8479 5.63817 10.993 5.52265 11.1412 5.34276C11.4002 5.02697 11.3019 4.60262 11.134 4.37565C10.9373 4.11117 10.5511 3.89999 9.98749 3.89999C9.47421 3.89999 9.08565 4.10723 8.853 4.39144ZM9.98989 7.65C10.2537 7.65 10.4696 7.47237 10.4696 7.25526C10.4696 7.03815 10.2537 6.86052 9.98989 6.86052C9.72605 6.86052 9.51019 7.03815 9.51019 7.25526C9.51019 7.47237 9.72605 7.65 9.98989 7.65ZM12.983 11.7904C12.8168 11.8192 12.7462 11.6646 12.8459 11.465C13.0474 11.0644 13.3839 10.6629 13.8284 10.4063C14.3165 10.1244 14.651 10.1425 14.8213 10.3087C14.9667 10.4517 15.0518 10.8269 14.8275 11.2722C14.6992 11.5262 14.5736 11.7142 14.4643 11.8777C14.3614 12.0318 14.2731 12.1641 14.2106 12.3093C14.1794 12.3806 14.1607 12.4348 14.1483 12.5308C14.1296 12.6857 14.005 12.8701 13.8512 12.9589C13.6705 13.0632 13.5231 13.0003 13.5438 12.8166C13.5563 12.7088 13.5812 12.5898 13.6394 12.4575C13.7282 12.254 13.8624 12.0589 13.9948 11.8664C14.1009 11.7121 14.2059 11.5595 14.2854 11.4056C14.4744 11.0418 14.3685 10.6274 13.8326 10.9368C13.5895 11.0771 13.4317 11.2886 13.334 11.4891C13.2613 11.6435 13.1097 11.7666 12.983 11.7904ZM14.2459 13.5205C14.2459 13.7376 14.059 14.0232 13.8305 14.1551C13.602 14.287 13.415 14.2173 13.415 14.0002C13.415 13.7831 13.602 13.4975 13.8305 13.3656C14.059 13.2337 14.2459 13.3034 14.2459 13.5205ZM5.24578 10.318C5.14608 10.4026 5.2167 10.6387 5.38288 10.8018C5.50958 10.9243 5.66122 10.9763 5.73392 10.9058C5.83154 10.818 5.98941 10.7888 6.23244 10.9291C6.76834 11.2385 6.87428 11.7753 6.68526 11.9208C6.60577 11.9829 6.5008 12.0143 6.39466 12.046C6.26225 12.0856 6.12804 12.1258 6.03926 12.2268C5.9811 12.2919 5.95617 12.3821 5.94371 12.4756C5.92294 12.6353 6.07042 12.8685 6.25113 12.9728C6.40484 13.0615 6.52947 13.021 6.54816 12.8877C6.56063 12.8061 6.57932 12.7735 6.61048 12.7382C6.67295 12.6651 6.76131 12.6348 6.86421 12.5996C6.97344 12.5622 7.09904 12.5192 7.2274 12.4134C7.45173 12.2271 7.36657 11.7536 7.22116 11.4427C7.05084 11.0799 6.71641 10.6756 6.22828 10.3938C5.78377 10.1372 5.44727 10.1501 5.24578 10.318ZM6.23036 14.145C6.45885 14.2769 6.64579 14.2072 6.64579 13.9901C6.64579 13.773 6.45885 13.4875 6.23036 13.3555C6.00187 13.2236 5.81493 13.2933 5.81493 13.5104C5.81493 13.7275 6.00187 14.0131 6.23036 14.145Z" fill="black"/>
</svg>
