<svg width="20" height="20" viewBox="0 0 20 20" fill="none" xmlns="http://www.w3.org/2000/svg">
<g clip-path="url(#clip0_22_1567)">
<path fill-rule="evenodd" clip-rule="evenodd" d="M7.75426 19.1278C7.81853 19.6266 8.24319 20 8.74606 20H11.2532C11.7564 20 12.1813 19.6261 12.2452 19.1269L12.4659 17.4024C12.5156 17.0138 12.7912 16.6974 13.1492 16.5383C13.3274 16.4591 13.5024 16.3701 13.6743 16.2711C13.8745 16.1556 14.074 16.0274 14.2728 15.8865C14.5739 15.6732 14.9621 15.6122 15.3026 15.7546L17.0127 16.4696C17.4733 16.6621 18.0054 16.4855 18.2594 16.0556L19.4877 13.9765C19.7497 13.533 19.6319 12.9629 19.2155 12.6596L17.7821 11.6154C17.4686 11.387 17.3271 10.999 17.3633 10.6128C17.3655 10.5899 17.3674 10.5675 17.3691 10.5456C17.3843 10.3544 17.3919 10.1726 17.3919 10C17.3919 9.81407 17.3881 9.62482 17.3805 9.43222C17.3651 9.04631 17.481 8.65047 17.7925 8.42227L19.2653 7.34368C19.6817 7.0387 19.7976 6.46687 19.5327 6.02382L18.3035 3.96746C18.0517 3.54626 17.5315 3.36999 17.0755 3.55137L15.2956 4.25944C14.9585 4.39354 14.5782 4.3303 14.2827 4.11976C14.0888 3.98152 13.8978 3.85827 13.7097 3.75C13.5309 3.64682 13.3377 3.55003 13.13 3.45963C12.7797 3.30714 12.5168 2.99525 12.4683 2.61632L12.2452 0.873054C12.1813 0.373919 11.7564 0 11.2532 0H8.73939C8.23889 0 7.81548 0.37001 7.74841 0.865991L7.51521 2.59049C7.46364 2.97181 7.19499 3.28395 6.84383 3.44129C6.65568 3.52559 6.46509 3.62183 6.27206 3.73C6.05166 3.85303 5.83991 3.98436 5.63681 4.12397C5.33599 4.33075 4.95253 4.39176 4.61475 4.25336L2.92949 3.56284C2.4718 3.37532 1.94578 3.55055 1.69201 3.97509L0.467328 6.02383C0.202488 6.46688 0.318365 7.0387 0.734791 7.34369L2.15805 8.38608C2.45316 8.60222 2.60448 8.962 2.56461 9.3256C2.56063 9.36189 2.55684 9.39742 2.55323 9.43222C2.53188 9.63815 2.5212 9.83444 2.5212 10.0211C2.5212 10.2219 2.53188 10.4285 2.55323 10.6411L2.5545 10.6533C2.59385 11.0288 2.44463 11.404 2.14006 11.6271L0.730988 12.6591C0.316159 12.9629 0.199345 13.5318 0.460886 13.9745L1.69215 16.0586C1.94533 16.4872 2.47515 16.6643 2.93514 16.4741L4.60911 15.7822C4.9612 15.6366 5.36187 15.7096 5.67678 15.9241C5.85811 16.0476 6.05539 16.1669 6.26863 16.2822C6.46548 16.3885 6.65601 16.4817 6.84022 16.5618C7.20399 16.7199 7.4853 17.0407 7.536 17.4341L7.75426 19.1278ZM10 14C12.2092 14 14 12.2091 14 10C14 7.79086 12.2092 6 10 6C7.7909 6 6.00004 7.79086 6.00004 10C6.00004 12.2091 7.7909 14 10 14Z" fill="black"/>
</g>
<defs>
<clipPath id="clip0_22_1567">
<rect width="20" height="20" fill="white"/>
</clipPath>
</defs>
</svg>
