<svg width="20" height="20" viewBox="0 0 20 20" fill="none" xmlns="http://www.w3.org/2000/svg">
<path fill-rule="evenodd" clip-rule="evenodd" d="M3.75 2.5H16.25V5.475H11.875V7.24014C15.5375 7.44936 18.275 8.25719 18.275 9.2125C18.275 10.1678 15.5375 10.9756 11.875 11.1849V17.5125H8.125V11.1849C4.46249 10.9756 1.72498 10.1678 1.72498 9.2125C1.72498 8.25685 4.45521 7.44878 8.125 7.23992V5.475H3.75V2.5ZM8.125 7.55475C4.80647 7.7074 2.34998 8.25616 2.34998 8.9125C2.34998 9.6875 5.77498 10.3125 9.99998 10.3125C14.225 10.3125 17.65 9.6875 17.65 8.9125C17.65 8.25616 15.1935 7.70741 11.875 7.55475V9.8C11.275 9.8375 10.65 9.85 10 9.85C9.35 9.85 8.725 9.825 8.125 9.8V7.55475Z" fill="black"/>
</svg>
