<svg width="20" height="20" viewBox="0 0 20 20" fill="none" xmlns="http://www.w3.org/2000/svg">
<path d="M10.4349 19.8948C10.1498 19.9691 9.85017 19.969 9.56515 19.8946C7.15347 19.265 5.14667 17.9707 3.54475 16.012C1.8475 13.9366 0.99925 11.6326 1 9.09997V4.44149C1 3.58063 1.55086 2.81635 2.36754 2.54412L9.36755 0.210788C9.77808 0.073943 10.2219 0.0739433 10.6325 0.210788L17.6325 2.54412C18.4491 2.81635 19 3.58063 19 4.44149V9.09997C19 11.6333 18.1518 13.9376 16.4553 16.013C14.854 17.9718 12.8472 19.2657 10.4349 19.8948ZM9.46179 17.7312C9.81039 17.8519 10.1896 17.8519 10.5382 17.7312C12.2486 17.1394 13.6817 16.0957 14.8375 14.6C16.1125 12.95 16.75 11.1166 16.75 9.09997V5.81649C16.75 4.95563 16.1991 4.19135 15.3825 3.91912L10.6325 2.33579C10.2219 2.19894 9.77808 2.19894 9.36754 2.33579L4.61754 3.91912C3.80086 4.19135 3.25 4.95563 3.25 5.81649V9.09997C3.25 11.1166 3.8875 12.95 5.1625 14.6C6.31827 16.0957 7.75137 17.1394 9.46179 17.7312Z" fill="black"/>
<path d="M15.5001 7.5V11.2995H14.6393L13.2664 9.30326H13.2441V11.2995H12.2126V7.5H13.0883L14.4389 9.48878H14.4686V7.5H15.5001Z" fill="black"/>
<path d="M8.78418 11.2995V7.5H10.4242C10.7062 7.5 10.9529 7.55566 11.1644 7.66697C11.3759 7.77828 11.5404 7.93474 11.6579 8.13633C11.7754 8.33793 11.8341 8.57354 11.8341 8.84317C11.8341 9.11526 11.7735 9.35087 11.6523 9.55C11.5324 9.74912 11.3635 9.90249 11.1459 10.0101C10.9294 10.1177 10.6765 10.1715 10.3871 10.1715H9.40753V9.37004H10.1793C10.3005 9.37004 10.4038 9.34902 10.4891 9.30697C10.5757 9.26368 10.6419 9.20246 10.6876 9.1233C10.7346 9.04415 10.7581 8.95077 10.7581 8.84317C10.7581 8.73433 10.7346 8.64157 10.6876 8.56489C10.6419 8.48697 10.5757 8.4276 10.4891 8.38679C10.4038 8.34474 10.3005 8.32371 10.1793 8.32371H9.81567V11.2995H8.78418Z" fill="black"/>
<path d="M5.66507 7.5L6.44425 10.1789H6.47394L7.25312 7.5H8.41819L7.16407 11.2995H5.75412L4.5 7.5H5.66507Z" fill="black"/>
</svg>
