<svg width="20" height="20" viewBox="0 0 20 20" fill="none" xmlns="http://www.w3.org/2000/svg">
<path fill-rule="evenodd" clip-rule="evenodd" d="M0.526021 7.57872C0.436784 7.21292 0.453717 6.84186 0.557706 6.50029C0.72585 5.56582 1.54314 4.85681 2.52602 4.85681H2.79258L15.1167 1.08731C16.173 0.764232 17.2667 1.36571 17.5595 2.43075L18.2654 4.99795C19.004 5.29199 19.526 6.01344 19.526 6.85681V17.0091C19.526 18.1137 18.6306 19.0091 17.526 19.0091H2.52602C1.42145 19.0091 0.526021 18.1137 0.526021 17.0091V7.57872ZM15.647 3.01573L16.1532 4.85681H9.62768L15.647 3.01573ZM17.526 6.85681H2.52602L2.52602 17.0091L17.526 17.0091V15H17H14C12.3431 15 11 13.6569 11 12C11 10.3431 12.3431 9 14 9H17H17.526V6.85681ZM13 12C13 11.4477 13.4477 11 14 11H15H17V13H15H14C13.4477 13 13 12.5523 13 12Z" fill="black"/>
</svg>
