<svg width="20" height="20" viewBox="0 0 20 20" fill="none" xmlns="http://www.w3.org/2000/svg">
<path fill-rule="evenodd" clip-rule="evenodd" d="M2.04849 11.3836C1.97357 11.1399 1.98779 10.8926 2.07509 10.665C2.21626 10.0423 2.90241 9.56991 3.7276 9.56991H3.95139L14.2981 7.05817C15.1849 6.8429 16.1031 7.24368 16.349 7.95335L16.9417 9.66395C17.5617 9.85988 18 10.3406 18 10.9026V17.6673C18 18.4033 17.2482 19 16.3209 19H3.7276C2.80025 19 2.04849 18.4033 2.04849 17.6673V11.3836ZM14.7433 8.34314L15.1684 9.56991H9.68982L14.7433 8.34314ZM16.3209 10.9026H3.7276L3.7276 17.6673L16.3209 17.6673V16.3286H15.8793H13.3606C11.9696 16.3286 10.842 15.4336 10.842 14.3296C10.842 13.2256 11.9696 12.3306 13.3606 12.3306H15.8793H16.3209V10.9026ZM12.5211 14.3296C12.5211 13.9616 12.8969 13.6633 13.3606 13.6633H14.2002H15.8793V14.996H14.2002H13.3606C12.8969 14.996 12.5211 14.6976 12.5211 14.3296Z" fill="black"/>
<path d="M9.99986 1L6.23428 3.27501C6.16 3.31989 6.10108 3.37316 6.06089 3.43179C6.02069 3.49042 6 3.55326 6 3.61672C6 3.68019 6.02069 3.74302 6.06089 3.80166C6.10108 3.86029 6.16 3.91356 6.23428 3.95843C6.30855 4.00331 6.39673 4.0389 6.49378 4.06319C6.59082 4.08748 6.69483 4.09998 6.79988 4.09998C6.90492 4.09998 7.00893 4.08748 7.10597 4.06319C7.20302 4.0389 7.2912 4.00331 7.36547 3.95843L9.19986 2.85017V6.51667C9.19986 6.64486 9.28415 6.7678 9.43418 6.85844C9.58421 6.94908 9.78769 7 9.99986 7C10.212 7 10.4155 6.94908 10.5655 6.85844C10.7156 6.7678 10.7999 6.64486 10.7999 6.51667V2.85017L12.6342 3.95843C12.7084 4.00347 12.7965 4.03921 12.8936 4.0636C12.9906 4.08799 13.0947 4.10055 13.1998 4.10055C13.305 4.10055 13.4091 4.08799 13.5061 4.0636C13.6032 4.03921 13.6913 4.00347 13.7654 3.95843C13.8398 3.91359 13.8988 3.86032 13.939 3.80169C13.9793 3.74305 14 3.6802 14 3.61672C14 3.55325 13.9793 3.49039 13.939 3.43176C13.8988 3.37312 13.8398 3.31986 13.7654 3.27501L9.99986 1Z" fill="#121212"/>
</svg>
